# xmcd CD database file
#
# Track frame offsets:
#	150
#	16662
#	28742
#	42495
#	62372
#	76272
#	92397
#	109600
#	127195
#	142217
#
# Disc length: 2049 seconds
#
# Revision: 5
# Processed by: cddbd v1.4PL0 Copyright (c) Steve Scherf et al.
# Submitted via: CDex 1.51
#
DISCID=7b07ff0a
DTITLE=Kenny Rogers - The Best of Kenny Rogers Disc 2
DYEAR=1996
DGENRE=Country
TTITLE0=Love Will Turn You Around
TTITLE1=Reuben James
TTITLE2=Every Time Two Fools Collide
TTITLE3=Through the Years
TTITLE4=What Are We Doin' in Love
TTITLE5=The Gambler
TTITLE6=We've Got Tonight
TTITLE7=Lady
TTITLE8=Share Your Love With Me
TTITLE9=Blaze of Glory
EXTD=YEAR: 1996
EXTT0=
EXTT1=
EXTT2=
EXTT3=
EXTT4=
EXTT5=
EXTT6=
EXTT7=
EXTT8=
EXTT9=
PLAYORDER=
